<svg xmlns="http://www.w3.org/2000/svg" xmlns:xlink="http://www.w3.org/1999/xlink" width="966.499" height="460.897" viewBox="0 0 966.499 460.897"><defs><style>.a,.b,.c,.d{fill:#1a1a1a;}.a{font-size:35px;}.a,.b,.c{font-family:Heavitas;}.b,.d{font-size:21px;}.c{font-size:22px;}.d{font-family:AzoSans-Regular, Azo Sans;}.e{fill:none;stroke:#161615;stroke-width:3px;stroke-dasharray:12;}.e,.g{stroke-miterlimit:10;}.f{stroke-linecap:round;stroke-linejoin:round;fill:url(#a);}.g{stroke:rgba(0,0,0,0);fill:url(#d);}.h,.i{stroke:none;}.i{fill:#222221;}.j{filter:url(#b);}</style><linearGradient id="a" x1="0.5" x2="0.5" y2="1" gradientUnits="objectBoundingBox"><stop offset="0" stop-color="#00abeb"/><stop offset="0.502" stop-color="#039edf"/><stop offset="0.808" stop-color="#0e76b9"/><stop offset="1" stop-color="#16579b"/></linearGradient><filter id="b" x="508.457" y="0" width="458.042" height="460.897" filterUnits="userSpaceOnUse"><feOffset dx="10" dy="8" input="SourceAlpha"/><feGaussianBlur stdDeviation="6" result="c"/><feFlood flood-opacity="0.161"/><feComposite operator="in" in2="c"/><feComposite in="SourceGraphic"/></filter><linearGradient id="d" x1="0.5" x2="0.5" y2="1" gradientUnits="objectBoundingBox"><stop offset="0" stop-color="#f6a020"/><stop offset="1" stop-color="#f9dd04"/></linearGradient></defs><g transform="translate(-213.75 -1799.028)"><text class="a" transform="translate(355.862 1836.357)"><tspan x="0" y="0">+ de 500</tspan></text><text class="a" transform="translate(276.91 2009.091)"><tspan x="0" y="0">+ de 250</tspan></text><text class="b" transform="translate(355.862 1869.977)"><tspan x="0" y="0">RESTAURANTS</tspan></text><text class="c" transform="translate(276.91 2042.476)"><tspan x="0" y="0">HÔTELS ET CAMPINGS</tspan></text><text class="d" transform="translate(355.862 1902.893)"><tspan x="0" y="0">Partout en France</tspan></text><text class="d" transform="translate(276.91 2074.754)"><tspan x="0" y="0">Partout en France</tspan></text><g transform="translate(213.75 2154.646)"><text class="a" transform="translate(0 26)"><tspan x="0" y="0">+ de 200</tspan></text><text class="c" transform="translate(0 60.09)"><tspan x="0" y="0">SENTIERS DE RANDONNÉE</tspan></text><text class="d" transform="translate(0 92.666)"><tspan x="0" y="0">Partout en France</tspan></text></g><path class="e" d="M0,14.079A432.785,432.785,0,0,1,152.006,2.13,374.994,374.994,0,0,1,226.763,17.3" transform="matrix(0.966, 0.259, -0.259, 0.966, 560.538, 1844.194)"/><g transform="translate(560.109 2129.116)"><path class="e" d="M0,6.576C27.357,19.648,94.592,47,177.463,31.853A278.117,278.117,0,0,0,264.706,0" transform="matrix(0.966, -0.259, 0.259, 0.966, 0.055, 68.511)"/></g><g transform="translate(572.304 2041.323)"><path class="e" d="M0,0C24.621,7.594,84.308,25.208,149.445,36.177a660.735,660.735,0,0,0,65.829,8.051" transform="matrix(0.966, -0.259, 0.259, 0.966, 1.525, 12.996)"/></g><g transform="translate(730.207 1802.069)"><g transform="translate(0 6.959)"><g class="j" transform="matrix(1, 0, 0, 1, -516.46, -10)"><g class="f" transform="translate(411.73 -216.73)"><path class="h" d="M 325.3232421875 649.1256103515625 C 325.2412414550781 649.1256103515625 325.1477661132812 649.1068115234375 325.0204162597656 648.9700317382812 C 324.6719360351562 648.5958251953125 324.3415832519531 647.6082153320312 324.4592895507812 645.9583740234375 L 324.5803527832031 644.2625122070312 L 323.047607421875 643.5266723632812 C 323.0270080566406 643.5167846679688 320.8565979003906 642.467529296875 318.6780090332031 641.0178833007812 C 317.4642333984375 640.2102661132812 316.4942932128906 639.445068359375 315.7951965332031 638.7435913085938 C 315.114990234375 638.0612182617188 314.886474609375 637.635009765625 314.811767578125 637.44921875 L 317.0027160644531 634.5277099609375 L 313.320068359375 633.628662109375 C 313.2449340820312 633.6104125976562 305.7170104980469 631.7798461914062 297.8591918945312 629.6719970703125 C 283.3032836914062 625.7672119140625 280.8587341308594 624.4639892578125 280.4928588867188 624.2188720703125 L 275.1675415039062 619.7097778320312 L 276.4489440917969 626.6083374023438 C 276.6913452148438 627.9133911132812 276.5672912597656 629.848388671875 276.0384216308594 630.484619140625 C 275.9803466796875 630.5545043945312 275.9202880859375 630.626708984375 275.607177734375 630.6267700195312 C 275.3607177734375 630.6267700195312 274.9227600097656 630.5728149414062 274.23583984375 630.3152465820312 C 272.9940185546875 629.849609375 271.6221923828125 629.623291015625 270.0419921875 629.623291015625 C 267.9583129882812 629.623291015625 265.8432922363281 630.0081787109375 263.6040649414062 630.4157104492188 C 261.3950500488281 630.81787109375 259.11083984375 631.2335815429688 256.9170532226562 631.233642578125 C 254.7104797363281 631.2337036132812 252.9121856689453 630.8247680664062 251.2577667236328 629.9468383789062 C 249.2335968017578 628.8726196289062 247.4547119140625 627.0953979492188 245.8195343017578 624.513427734375 L 245.0023651123047 623.22314453125 L 243.4812927246094 623.361328125 C 243.4707641601562 623.3622436523438 242.2464752197266 623.4700927734375 240.5278930664062 623.4700927734375 C 238.4381866455078 623.4701538085938 235.4534759521484 623.3131713867188 233.1018218994141 622.5648803710938 C 230.1668853759766 621.6310424804688 230.1668853759766 620.458740234375 230.1668853759766 620.0174560546875 L 230.1668853759766 617.6764526367188 L 227.8309478759766 617.5228271484375 C 227.7421875 617.5169067382812 218.7474212646484 616.8892211914062 210.0540618896484 613.860107421875 C 205.1153564453125 612.1392822265625 201.2560577392578 609.999267578125 198.5834197998047 607.49951171875 C 196.1744537353516 605.2463989257812 194.7685089111328 602.7570190429688 194.3285675048828 599.9453125 C 195.8939514160156 599.6696166992188 197.927734375 598.7410888671875 200.0825347900391 596.2440185546875 C 202.7284698486328 593.1777954101562 205.2013549804688 588.1683349609375 207.4325408935547 581.3546752929688 C 213.4601287841797 562.947265625 217.8364715576172 531.5223388671875 220.4400024414062 487.9528503417969 L 220.4691772460938 487.4653930664062 L 220.3127136230469 487.0027465820312 C 220.2844696044922 486.9193115234375 217.4480590820312 478.5563354492188 213.6930084228516 469.4713134765625 C 211.4760589599609 464.1075439453125 209.3727111816406 459.5335693359375 207.4413604736328 455.8763732910156 C 205.0879821777344 451.4199523925781 203.0081634521484 448.3409729003906 201.1017913818359 446.4950256347656 C 200.9354858398438 446.1036987304688 200.6919555664062 445.5617980957031 200.3326568603516 444.7774353027344 C 199.1068267822266 442.1015014648438 196.9522399902344 437.5685119628906 193.9286499023438 431.3043823242188 L 193.5166473388672 430.4508361816406 L 192.6844787597656 430.1029052734375 C 192.1072540283203 429.837158203125 190.8293914794922 428.9822082519531 190.7205352783203 428.1296081542969 C 190.6142425537109 427.2970275878906 191.5603637695312 425.9816284179688 193.2514190673828 424.6109008789062 L 194.4598846435547 423.6313781738281 L 194.1149444580078 422.114501953125 C 194.0474700927734 421.8176879882812 192.4158325195312 414.7608032226562 188.4080047607422 407.48779296875 C 186.0081176757812 403.1326293945312 183.2454681396484 399.5986633300781 180.1968231201172 396.9841003417969 C 176.2423553466797 393.5926818847656 171.8150024414062 391.7454833984375 167.0377655029297 391.4940185546875 C 159.6841888427734 391.1069030761719 156.1220703125 388.2490844726562 151.9975280761719 384.9400329589844 C 146.9642333984375 380.9019165039062 141.2593536376953 376.3249816894531 128.3944702148438 376.3249816894531 C 127.2938842773438 376.3249816894531 126.1391830444336 376.3587341308594 124.9624786376953 376.4253234863281 L 124.4475936889648 376.4544372558594 L 124.0598907470703 376.6482238769531 C 124.0151748657227 376.6619567871094 123.9020462036133 376.69140625 123.7531204223633 376.6914367675781 C 123.3650665283203 376.6914367675781 122.9603576660156 376.4835510253906 122.5503540039062 376.0735473632812 C 121.9113540649414 375.4346618652344 120.9913558959961 374.0400390625 120.2373580932617 371.0242004394531 C 119.3981246948242 367.6676025390625 117.7184753417969 365.1788024902344 115.2451782226562 363.626953125 C 113.4352416992188 362.4913330078125 111.2882995605469 361.9155578613281 108.8640670776367 361.9155578613281 C 108.4463500976562 361.9155578613281 108.0491409301758 361.9331359863281 107.6789245605469 361.9618530273438 C 107.1019287109375 358.0608215332031 106.4783706665039 349.9949645996094 109.9381256103516 344.4690856933594 C 111.7161254882812 341.6292114257812 114.3102416992188 339.8643188476562 117.86865234375 339.0735473632812 C 124.0044174194336 337.7100219726562 128.8533630371094 337.5261535644531 132.787353515625 337.5261535644531 C 133.5739440917969 337.5261535644531 134.3267059326172 337.533447265625 135.0547180175781 337.5404357910156 C 135.7368316650391 337.5470275878906 136.3811187744141 337.5532531738281 137.0122985839844 337.5532531738281 C 141.8584136962891 337.5532531738281 146.1691284179688 337.2041320800781 149.8474731445312 332.913330078125 C 151.4231872558594 331.0748596191406 154.3790588378906 330.0205078125 157.9573516845703 330.0205078125 C 160.5442962646484 330.0205078125 163.1812438964844 330.5748596191406 165.1920013427734 331.5413818359375 C 166.9387054443359 332.3809204101562 167.76953125 333.3433837890625 167.8180084228516 333.9247436523438 C 168.0941772460938 337.2411499023438 168.6353607177734 340.0301513671875 169.4264678955078 342.2138366699219 C 170.0222473144531 343.8584899902344 170.7441253662109 345.127685546875 171.6332397460938 346.0939636230469 C 172.8581848144531 347.4251403808594 174.3897094726562 348.1287841796875 176.0622406005859 348.1287841796875 C 178.0067138671875 348.1287841796875 180.0021209716797 347.2098999023438 182.16259765625 345.3195495605469 C 183.709716796875 343.9658508300781 186.7055358886719 343.2503356933594 190.8261260986328 343.2503356933594 C 200.6260070800781 343.2503356933594 213.1666564941406 347.2365112304688 213.2921752929688 347.2767333984375 L 217.1142425537109 348.502685546875 L 216.5290679931641 344.53173828125 C 216.5119476318359 344.4158020019531 214.7933044433594 332.7934875488281 212.441650390625 320.3114318847656 C 211.0563507080078 312.9586181640625 209.7240600585938 306.7419128417969 208.4818267822266 301.8340759277344 C 207.6278686523438 298.4601745605469 206.8185119628906 295.7094421386719 206.0414886474609 293.5470581054688 C 210.6430206298828 294.1466369628906 217.6580505371094 294.9641418457031 221.6992340087891 294.9641418457031 C 222.2294921875 294.9641418457031 222.6947326660156 294.9506530761719 223.1084442138672 294.9231567382812 C 223.1874237060547 295.11767578125 223.2919616699219 295.4346008300781 223.4008941650391 295.9328002929688 C 223.5863037109375 296.7807922363281 223.7175903320312 297.8230285644531 223.8566589355469 298.9263916015625 C 224.1297760009766 301.0942687988281 224.4122467041016 303.3359680175781 225.2015380859375 305.2424926757812 C 225.7201232910156 306.4952697753906 226.3936004638672 307.4507446289062 227.2602996826172 308.1636657714844 C 228.3241882324219 309.0387268066406 229.6055297851562 309.4824523925781 231.0688323974609 309.4824523925781 C 232.5389404296875 309.4824523925781 235.5880584716797 310.3667297363281 238.8161163330078 311.3029174804688 C 244.3157653808594 312.8978576660156 251.1602325439453 314.8828430175781 257.4971313476562 314.8832702636719 C 257.4978637695312 314.8832702636719 257.4987182617188 314.8832702636719 257.4994506835938 314.8832702636719 C 260.4957885742188 314.8832702636719 263.1647338867188 314.4264526367188 265.4325256347656 313.5254821777344 C 268.1205444335938 312.4576721191406 270.3247680664062 310.7477416992188 271.9839477539062 308.4431457519531 L 274.0736389160156 305.5405578613281 L 270.66064453125 304.5840454101562 C 269.7413940429688 304.3032531738281 267.7878112792969 303.343505859375 267.5697021484375 302.1488952636719 C 267.4535217285156 301.5122680664062 267.8190612792969 300.7344970703125 268.1461791992188 300.1941528320312 C 268.9298400878906 298.8996887207031 270.3784790039062 297.4346008300781 272.4518432617188 295.8396606445312 C 277.8765869140625 291.6666870117188 285.3678283691406 289.5609741210938 291.9772338867188 287.7031555175781 C 296.1246032714844 286.5373840332031 299.7063598632812 285.5306091308594 302.4219970703125 284.1390380859375 C 304.0814819335938 283.2886657714844 305.2945251464844 282.3485412597656 306.1304626464844 281.2650146484375 C 306.8479919433594 280.3349914550781 307.2864685058594 279.2846374511719 307.4306030273438 278.1691589355469 C 308.3416442871094 277.4166564941406 309.5439453125 276.1478271484375 310.6689453125 274.0985107421875 C 311.7823486328125 272.0703125 312.6171264648438 269.6342163085938 313.1501159667969 266.8578491210938 C 313.7930603027344 263.5086059570312 314.0010070800781 259.6275634765625 313.7682495117188 255.3225555419922 C 313.3489990234375 247.5592651367188 314.2200622558594 241.9241485595703 316.3572998046875 238.5738525390625 C 317.9352416992188 236.1002044677734 320.2335815429688 234.8437347412109 323.5903015136719 234.6196136474609 C 329.2016296386719 234.2458038330078 338.3392639160156 231.4808349609375 342.892333984375 230.0052185058594 C 343.2789611816406 231.8653717041016 343.8645324707031 234.4129638671875 344.6311340332031 236.9840850830078 C 345.509765625 239.9311370849609 346.4521179199219 242.3096771240234 347.4319458007812 244.0536804199219 C 348.0987548828125 245.2404327392578 348.7845458984375 246.1493835449219 349.5284118652344 246.8322601318359 C 350.8593139648438 248.0540924072266 352.1597595214844 248.3105621337891 353.0164184570312 248.3105621337891 C 353.4191284179688 248.3105621337891 353.8236999511719 248.2559051513672 354.218994140625 248.1481475830078 C 355.9365844726562 247.6793823242188 357.4490661621094 246.9788513183594 358.7834167480469 246.3607940673828 C 359.7217102050781 245.9262084960938 360.8686828613281 245.3950347900391 361.4598999023438 245.3020172119141 C 361.5474548339844 245.4600067138672 361.6874389648438 245.7735290527344 361.8296508789062 246.3424377441406 C 362.6704711914062 249.7059631347656 364.3817749023438 252.3901977539062 367.0612487792969 254.5485534667969 C 369.3194274902344 256.3676147460938 372.3468933105469 257.8733825683594 376.5887756347656 259.2873840332031 C 379.620361328125 260.2980346679688 384.0467834472656 261.9840393066406 387.470703125 264.9436645507812 C 391.0997009277344 268.08056640625 392.86376953125 271.9735107421875 392.86376953125 276.8450317382812 C 392.86376953125 279.3132629394531 393.3645935058594 281.1826171875 394.394775390625 282.5599670410156 C 395.4737243652344 284.0023803710938 397.1100158691406 284.7967834472656 399.0023498535156 284.7967834472656 C 402.8621215820312 284.7967834472656 407.1455993652344 281.5772094726562 409.6409606933594 278.8201904296875 C 410.5755615234375 277.7875366210938 411.594970703125 276.4657897949219 412.2504577636719 275.0425109863281 C 412.3945617675781 275.29443359375 412.5399169921875 275.5669250488281 412.6839599609375 275.8602600097656 C 413.6946411132812 277.9189758300781 414.2513122558594 280.2048950195312 414.2513122558594 282.2969665527344 C 414.2513122558594 287.1514282226562 418.6664733886719 292.6732482910156 426.0619506835938 297.0678405761719 C 429.7201232910156 299.2416687011719 433.8102416992188 300.9696655273438 438.2187194824219 302.2039184570312 C 443.0693054199219 303.5619201660156 448.0845947265625 304.25048828125 453.1253051757812 304.25048828125 C 454.339111328125 304.25048828125 455.5675964355469 304.2096252441406 456.7764892578125 304.1289672851562 C 457.8863525390625 304.0549621582031 458.9373474121094 304.0174255371094 459.9002380371094 304.0174255371094 C 463.591064453125 304.0174255371094 466.2315368652344 304.5676879882812 467.7482299804688 305.6529235839844 C 468.9341735839844 306.5014343261719 469.4356994628906 307.64501953125 470.0707092285156 309.0928649902344 C 470.697998046875 310.5231323242188 471.4089965820312 312.1443176269531 472.9027709960938 313.4627380371094 C 474.55224609375 314.9184875488281 476.8235473632812 315.6826782226562 479.8464050292969 315.7988586425781 C 485.2102966308594 316.0054321289062 494.4774169921875 317.3766174316406 503.4553527832031 319.2920837402344 C 507.8134155273438 320.2218627929688 511.7106628417969 321.1964416503906 514.7257080078125 322.1104431152344 C 517.2776489257812 322.8840026855469 518.6756591796875 323.458984375 519.4171142578125 323.8197631835938 C 518.991455078125 324.9850769042969 518.2307739257812 326.8588256835938 517.4879760742188 328.6886291503906 C 514.8475341796875 335.1925048828125 510.4283142089844 346.0779724121094 507.2500610351562 357.7756042480469 C 505.482421875 364.28173828125 504.2945251464844 370.331787109375 503.719482421875 375.7578430175781 C 503.0456848144531 382.1159973144531 503.1929321289062 387.8082885742188 504.1569213867188 392.6849975585938 C 504.1026611328125 393.2077026367188 503.9271850585938 394.4255981445312 503.4027099609375 395.5839233398438 C 502.4591674804688 397.667724609375 501.1527709960938 397.9350891113281 500.1200561523438 397.9352111816406 C 498.9019470214844 397.9353332519531 497.3955993652344 397.4910278320312 495.6430053710938 396.6146850585938 C 493.2437133789062 395.4151306152344 491.4273071289062 394.8565063476562 489.9264221191406 394.8565063476562 C 487.6665344238281 394.8565063476562 486.6089477539062 396.1205444335938 486.1796569824219 396.8740234375 C 485.2484741210938 398.5083923339844 485.4233703613281 400.73583984375 486.7299499511719 403.884033203125 C 487.0234375 404.5911865234375 487.3385009765625 405.256103515625 487.6195983886719 405.814208984375 C 485.5319519042969 408.2615661621094 480.8450622558594 413.8612976074219 475.875 420.5031433105469 C 466.8304138183594 432.590087890625 461.1792907714844 442.2333068847656 459.0786437988281 449.1649169921875 C 458.6208190917969 450.6755065917969 458.3876037597656 451.9337463378906 458.365478515625 453.0116882324219 C 458.337646484375 454.3688049316406 458.6539916992188 455.5023803710938 459.3057556152344 456.3809814453125 C 459.9105834960938 457.1962585449219 461.0870666503906 458.1680908203125 463.2570495605469 458.1680908203125 C 465.5166015625 458.1680908203125 468.2921752929688 457.1371459960938 471.5060119628906 455.9433898925781 C 474.7322998046875 454.7450256347656 478.3890075683594 453.38671875 481.0533447265625 453.38671875 C 481.9572448730469 453.38671875 482.6728210449219 453.5468444824219 483.1802978515625 453.8626098632812 C 483.7072448730469 454.1905517578125 484.1012878417969 454.7483215332031 484.3849487304688 455.5677795410156 C 485.8147583007812 459.6987915039062 487.5511779785156 463.1440734863281 488.9464111328125 465.9124450683594 C 490.4033508300781 468.8031311035156 491.9098815917969 471.7922668457031 491.4964904785156 472.9399108886719 C 491.3367614746094 473.3832702636719 490.6753540039062 473.8783264160156 489.6340026855469 474.3339538574219 C 487.7691955566406 475.1496887207031 486.5621337890625 476.6330261230469 486.2354125976562 478.5106811523438 C 485.9064636230469 480.4012145996094 486.4541931152344 482.6160888671875 487.9096984863281 485.2818603515625 C 488.9109497070312 487.1156005859375 490.3634643554688 489.1944885253906 492.2269592285156 491.4607238769531 C 494.7957458496094 494.5847778320312 497.4161071777344 497.1863708496094 498.3174743652344 498.0606079101562 C 498.6855163574219 498.8636169433594 499.6087341308594 501.2939758300781 498.4722290039062 503.4410705566406 C 497.86083984375 504.5960998535156 496.7095336914062 505.5953063964844 495.0502319335938 506.4111328125 C 492.7592468261719 507.5375061035156 489.5641174316406 508.2893676757812 485.5535888671875 508.6459655761719 L 482.4993591308594 508.9175109863281 L 483.3804016113281 511.8544921875 C 483.4133605957031 511.9643249511719 484.2059936523438 514.5778198242188 485.837646484375 517.5146484375 C 486.8169555664062 519.2774658203125 487.9039611816406 520.8079833984375 489.0684204101562 522.063720703125 C 490.615234375 523.7318115234375 492.3125305175781 524.9287109375 494.1131286621094 525.621337890625 C 494.7736511230469 525.8753662109375 495.1825256347656 526.26806640625 495.4389953613281 526.8946533203125 C 495.9023132324219 528.026611328125 495.8536071777344 529.8692626953125 495.3019409179688 532.0831909179688 C 494.8433532714844 533.9234619140625 494.1991882324219 535.3637084960938 494.1928405761719 535.3777465820312 L 494.0714111328125 535.6448364257812 L 494.01513671875 535.9328002929688 C 493.9358825683594 536.3381958007812 492.1378784179688 545.9378662109375 497.6325988769531 552.6104125976562 C 499.1835327148438 554.4937744140625 501.1668395996094 555.9578857421875 503.52734375 556.9620971679688 C 506.1091918945312 558.0603637695312 509.1791076660156 558.6172485351562 512.65185546875 558.6172485351562 C 514.0780639648438 558.6172485351562 515.6005249023438 558.5232543945312 517.1769409179688 558.3377685546875 C 518.2548828125 558.2109375 519.2418212890625 558.1466674804688 520.1102294921875 558.1466674804688 C 522.3570556640625 558.1466674804688 523.87353515625 558.579345703125 524.166748046875 559.303955078125 C 524.2850952148438 559.5965576171875 524.56005859375 560.7772216796875 523.1278076171875 563.6870727539062 C 522.12353515625 565.7275390625 520.5108032226562 568.1544189453125 518.3345336914062 570.9004516601562 C 514.9421997070312 575.1806640625 511.2325439453125 578.8888549804688 510.4395751953125 579.6701049804688 C 509.4442443847656 580.3391723632812 504.85302734375 583.4456176757812 500.3161926269531 586.8482055664062 C 497.2875366210938 589.11962890625 494.8627624511719 591.0863037109375 493.1092529296875 592.6936645507812 C 490.3053283691406 595.2638549804688 489.1683044433594 596.9095458984375 489.1109619140625 598.502197265625 C 489.0206909179688 598.7776489257812 488.5787353515625 599.6390380859375 487.3619995117188 601.0020141601562 C 486.1123657226562 602.4017944335938 484.4453125 603.874267578125 482.6679992675781 605.1480712890625 C 480.0563049316406 607.0199584960938 474.822998046875 610.1602783203125 469.1174621582031 610.1605834960938 C 468.0195922851562 610.16064453125 466.9444885253906 610.0409545898438 465.9220581054688 609.8050537109375 C 461.7101135253906 608.8328247070312 457.9047546386719 608.4428100585938 454.54736328125 608.0986938476562 C 451.3587036132812 607.7718505859375 448.6048889160156 607.4895629882812 446.8872985839844 606.797607421875 C 445.5719909667969 606.2677612304688 445.0979919433594 605.6368408203125 445.0087585449219 604.29736328125 C 444.8869323730469 602.4723510742188 443.8922424316406 601.0376586914062 442.2079467773438 600.2572021484375 C 441.1148376464844 599.7506713867188 439.7362365722656 599.5147705078125 437.8693542480469 599.5147705078125 C 436.0606384277344 599.5147705078125 433.96240234375 599.7334594726562 431.7409362792969 599.9649047851562 C 429.2338256835938 600.2261962890625 426.641357421875 600.4963989257812 424.1572875976562 600.4965209960938 C 421.4105834960938 600.4966430664062 419.30029296875 600.1585693359375 417.7057189941406 599.4630737304688 C 415.9805297851562 598.7106323242188 414.8778991699219 597.5523071289062 414.235595703125 595.8179321289062 L 413.6518249511719 594.2415771484375 L 411.9717102050781 594.1873779296875 C 411.9443054199219 594.1865234375 409.1499938964844 594.09228515625 406.1013488769531 593.7214965820312 C 402.0010375976562 593.2227783203125 400.3673706054688 592.5930786132812 399.7831115722656 592.2884521484375 C 399.7066345214844 591.7791748046875 399.4927062988281 591.3087768554688 399.1524658203125 590.9165649414062 C 398.6374206542969 590.32275390625 397.8748168945312 589.982177734375 397.060302734375 589.982177734375 C 395.9539489746094 589.982177734375 394.7416076660156 590.4642944335938 390.8446044921875 593.2042236328125 C 388.4141845703125 594.9129028320312 385.3606567382812 597.2103271484375 382.1278381347656 599.6427001953125 C 378.1728820800781 602.6182861328125 374.083251953125 605.6951904296875 370.5740051269531 608.1233520507812 C 365.4762573242188 611.6505737304688 363.9956970214844 612.1114501953125 363.6965026855469 612.1713256835938 C 362.6563415527344 612.1923828125 361.7036743164062 612.6648559570312 361.0071716308594 613.5071411132812 C 359.8208312988281 614.9417114257812 359.3526000976562 617.4463500976562 359.44140625 621.8818969726562 C 359.5005798339844 624.836669921875 359.8228759765625 628.6378173828125 360.3994140625 633.1796264648438 C 360.9101257324219 637.2031860351562 361.5349426269531 641.1213989257812 362.0151672363281 643.9459838867188 C 361.1354064941406 643.787353515625 360.1394653320312 643.684814453125 359.0353088378906 643.684814453125 C 356.8046569824219 643.684814453125 354.4908142089844 644.1068725585938 352.1581726074219 644.9392700195312 C 349.7783203125 645.7884521484375 347.3600769042969 647.073974609375 344.9533081054688 648.767822265625 C 344.0372314453125 648.4031372070312 342.7207946777344 647.9010009765625 341.2222900390625 647.3961181640625 C 337.3254089355469 646.083251953125 334.1848754882812 645.4176025390625 331.887939453125 645.4176025390625 C 328.5575256347656 645.4176025390625 327.1385803222656 646.8568115234375 326.5347595214844 648.0641479492188 C 326.1701965332031 648.7935791015625 325.6512451171875 649.1256103515625 325.3232421875 649.1256103515625 Z"/><path class="i" d="M 341.0439147949219 233.208984375 C 340.174560546875 233.4767456054688 339.2334289550781 233.7598266601562 338.2466430664062 234.0464477539062 C 332.0147094726562 235.8565673828125 327.1393432617188 236.888671875 323.7568359375 237.1139526367188 C 321.1922302246094 237.2852172851562 319.6096496582031 238.1238403320312 318.4649353027344 239.9182739257812 C 317.1927185058594 241.9127197265625 315.7781677246094 246.1807861328125 316.2645874023438 255.1876220703125 C 316.718994140625 263.5916748046875 315.5736999511719 270.3590087890625 312.8604736328125 275.3015747070312 C 311.8278198242188 277.1826171875 310.71533203125 278.523681640625 309.7314758300781 279.4639892578125 C 309.4390563964844 280.65234375 308.89501953125 281.7742919921875 308.1098937988281 282.7920532226562 C 307.0440673828125 284.173583984375 305.5564880371094 285.3419189453125 303.5621337890625 286.3638916015625 C 300.623779296875 287.8695678710938 296.9303588867188 288.90771484375 292.6537780761719 290.10986328125 C 286.2622985839844 291.9064331054688 279.01806640625 293.9426879882812 273.97607421875 297.8212890625 C 271.4671325683594 299.751220703125 270.5440673828125 301.0161743164062 270.2141723632812 301.609619140625 C 270.5318603515625 301.825439453125 270.9979248046875 302.0628051757812 271.3783569335938 302.1886596679688 C 272.956298828125 302.6166381835938 274.1694946289062 303.774169921875 274.7204284667969 305.3151245117188 C 275.2740173339844 306.8635864257812 274.9736633300781 308.5693359375 274.0128173828125 309.9038696289062 C 272.0703430175781 312.6018676757812 269.4940490722656 314.6019897460938 266.3554077148438 315.8488159179688 C 263.7922973632812 316.866943359375 260.81201171875 317.3832397460938 257.4972839355469 317.3832397460938 C 250.8048400878906 317.3832397460938 243.7708740234375 315.3431396484375 238.1190185546875 313.7039184570312 C 235.4745788574219 312.9369506835938 232.18359375 311.982421875 231.0688171386719 311.982421875 C 229.0398864746094 311.982421875 227.1737670898438 311.3295288085938 225.6720581054688 310.0942993164062 C 224.4971313476562 309.1278686523438 223.5616455078125 307.817138671875 222.8916015625 306.1986083984375 C 221.9738159179688 303.9816284179688 221.6563110351562 301.4618530273438 221.3762512207031 299.2386474609375 C 221.3097839355469 298.7113647460938 221.2276000976562 298.0591430664062 221.13623046875 297.45947265625 C 218.0252685546875 297.4097290039062 213.5533447265625 296.9703979492188 209.6282958984375 296.5100708007812 C 211.0399475097656 301.300537109375 212.7731323242188 308.568115234375 214.8984069824219 319.8486328125 C 217.2591857910156 332.379150390625 218.985107421875 344.0509033203125 219.0022888183594 344.1672973632812 C 219.2539978027344 345.8756103515625 218.6065368652344 347.5928955078125 217.2895202636719 348.7096557617188 C 215.9725952148438 349.8265991210938 214.172607421875 350.1846923828125 212.5284118652344 349.6572875976562 C 212.4065856933594 349.6182250976562 200.2392272949219 345.7499389648438 190.8262329101562 345.7503051757812 C 185.8530578613281 345.7505493164062 184.1977233886719 346.8607177734375 183.8087768554688 347.2010498046875 C 182.5937805175781 348.26416015625 181.4264221191406 349.0568237304688 180.239990234375 349.6244506835938 C 178.8471374511719 350.2908935546875 177.4414672851562 350.6287841796875 176.0622253417969 350.6287841796875 C 173.6720581054688 350.6287841796875 171.5044250488281 349.6460571289062 169.7935485839844 347.7867431640625 C 168.6757202148438 346.5718994140625 167.7867736816406 345.0275268554688 167.0759582519531 343.0653686523438 C 166.2470397949219 340.77734375 165.6724243164062 337.9264526367188 165.3663940429688 334.587158203125 C 165.0823974609375 334.3292236328125 164.4008178710938 333.8518676757812 163.1847229003906 333.4069213867188 C 161.6219482421875 332.835205078125 159.7655944824219 332.5203857421875 157.9577026367188 332.5205078125 C 155.1517639160156 332.5206909179688 152.8295288085938 333.2756958007812 151.7454833984375 334.54052734375 C 149.73388671875 336.886962890625 147.3834228515625 338.426513671875 144.5596008300781 339.2470703125 C 142.2571105957031 339.9161376953125 139.8773498535156 340.0532836914062 137.0125427246094 340.0532836914062 C 136.3693542480469 340.0532836914062 135.7190551757812 340.0469970703125 135.0305786132812 340.0403442382812 C 134.308349609375 340.0333862304688 133.5615234375 340.026123046875 132.7870788574219 340.026123046875 C 128.9885864257812 340.0261840820312 124.31005859375 340.2030029296875 118.4110107421875 341.5139770507812 C 115.5440673828125 342.1510620117188 113.4677734375 343.5482788085938 112.0635375976562 345.785400390625 C 110.4337768554688 348.3816528320312 109.6290893554688 352.1997680664062 109.736328125 356.8268432617188 C 109.7579956054688 357.7600708007812 109.8154907226562 358.643310546875 109.8901977539062 359.4456176757812 C 112.3795776367188 359.5935668945312 114.6240234375 360.285888671875 116.5738525390625 361.50927734375 C 118.0361938476562 362.4268188476562 119.2910766601562 363.6275634765625 120.3035888671875 365.0783081054688 C 121.3624267578125 366.5952758789062 122.1560668945312 368.3917236328125 122.66259765625 370.417724609375 C 123.1920166015625 372.5350952148438 123.7583618164062 373.5656433105469 124.0875244140625 374.0256958007812 C 124.3287963867188 373.9756164550781 124.5740356445312 373.9433288574219 124.8212280273438 373.9293212890625 C 126.04443359375 373.8600769042969 127.2466430664062 373.8249816894531 128.3944702148438 373.8249816894531 C 134.48193359375 373.8249816894531 139.621826171875 374.8026733398438 144.1078186035156 376.8139038085938 C 148.0879516601562 378.5983276367188 150.9961242675781 380.9314880371094 153.56201171875 382.9900817871094 C 155.5095825195312 384.5526123046875 157.3491821289062 386.0285034179688 159.4510498046875 387.0893859863281 C 161.71728515625 388.2332763671875 164.1697692871094 388.8395690917969 167.169189453125 388.9974975585938 C 172.5103454589844 389.2786865234375 177.4410705566406 391.3272705078125 181.8243103027344 395.0863647460938 C 185.1009521484375 397.896484375 188.0527038574219 401.6629638671875 190.5975952148438 406.2811889648438 C 194.7735290527344 413.859375 196.4820556640625 421.2493286132812 196.5527038574219 421.5602111816406 C 196.9750671386719 423.4176025390625 196.3053588867188 425.3535461425781 194.8256530761719 426.5530395507812 C 194.2116394042969 427.0507507324219 193.8182067871094 427.4496459960938 193.569580078125 427.7415466308594 C 193.6193542480469 427.7718200683594 193.6683654785156 427.7996215820312 193.7145690917969 427.8234558105469 C 194.8641662597656 428.2870178222656 195.6392211914062 429.0971069335938 196.1800537109375 430.2176818847656 C 199.2109375 436.4967956542969 201.3727722167969 441.0451354980469 202.6055297851562 443.7362670898438 C 202.8467712402344 444.2628784179688 203.0455322265625 444.6983947753906 203.2095336914062 445.0689697265625 C 205.2060241699219 447.1292724609375 207.3238830566406 450.30029296875 209.6520690917969 454.7089538574219 C 211.6197814941406 458.4350891113281 213.7567138671875 463.08056640625 216.00341796875 468.5163879394531 C 219.7897644042969 477.6771545410156 222.5646667480469 485.8580322265625 222.6808776855469 486.2017822265625 C 222.8876037597656 486.8128356933594 222.9740600585938 487.4580993652344 222.9356079101562 488.1019592285156 C 220.3192443847656 531.8851928710938 215.9026489257812 563.521728515625 209.8084106445312 582.1326904296875 C 207.4409484863281 589.362548828125 204.8787231445312 594.5126953125 201.9753112792969 597.8772583007812 C 200.3827514648438 599.7227783203125 198.8032531738281 600.87060546875 197.3525085449219 601.56591796875 C 197.4006652832031 601.6857299804688 197.451416015625 601.8048095703125 197.5047607421875 601.92333984375 C 198.0919494628906 603.2269287109375 199.021240234375 604.4810791015625 200.2668151855469 605.65087890625 C 202.6692504882812 607.9071044921875 206.2120666503906 609.865478515625 210.7970581054688 611.4714965820312 C 219.1718139648438 614.4049682617188 227.9120788574219 615.0225830078125 227.9949951171875 615.0281982421875 C 230.505126953125 615.1932983398438 232.4818420410156 617.19091796875 232.6546020507812 619.6646728515625 C 233.004150390625 619.8831787109375 233.8072509765625 620.2476806640625 235.2533569335938 620.5317993164062 C 236.7131958007812 620.8184814453125 238.537109375 620.9700927734375 240.5279541015625 620.9700927734375 C 242.118408203125 620.9700927734375 243.2505493164062 620.8719482421875 243.2617797851562 620.8709716796875 L 243.2550048828125 620.87158203125 C 245.1267700195312 620.6962890625 246.925537109375 621.58740234375 247.9315795898438 623.1758422851562 C 249.328125 625.3809204101562 250.7994689941406 626.873291015625 252.4296569824219 627.7384033203125 C 253.7090759277344 628.4173583984375 255.135009765625 628.733642578125 256.9171142578125 628.733642578125 C 258.88525390625 628.733642578125 261.056640625 628.33837890625 263.1565246582031 627.9561767578125 C 265.4063110351562 627.5466918945312 267.732666015625 627.123291015625 270.0419921875 627.123291015625 C 271.4845886230469 627.123291015625 272.7947082519531 627.2863159179688 274.0147705078125 627.6195068359375 C 273.763916015625 626.9210205078125 273.7049560546875 626.289794921875 273.7049560546875 625.85107421875 C 273.7049560546875 625.4718627929688 273.7349548339844 625.123291015625 273.7967224121094 624.785400390625 C 273.8917846679688 624.2655029296875 274.0632934570312 623.7684326171875 274.3065490722656 623.30810546875 C 275.1741943359375 621.6661987304688 276.8645324707031 620.640380859375 278.7205810546875 620.631103515625 C 278.7282409667969 620.6310424804688 278.7357482910156 620.6310424804688 278.7433776855469 620.6310424804688 C 280.2560729980469 620.6310424804688 281.6646728515625 621.310302734375 282.6129455566406 622.4550170898438 C 283.4314880371094 622.7869873046875 285.0033569335938 623.361328125 287.9161376953125 624.254638671875 C 290.8170776367188 625.1444091796875 294.5483093261719 626.1995849609375 299.0061340332031 627.3909912109375 C 306.6477661132812 629.433349609375 313.8383483886719 631.181884765625 313.9100646972656 631.1993408203125 C 315.5435791015625 631.5960693359375 316.868408203125 632.787109375 317.4361877441406 634.3692626953125 C 317.7484741210938 635.239501953125 317.8087768554688 636.1640014648438 317.6319274902344 637.0436401367188 C 318.13232421875 637.534423828125 319.0500183105469 638.3056640625 320.6693725585938 639.3297119140625 C 322.4731140136719 640.4705200195312 324.1176452636719 641.2672119140625 324.1295471191406 641.2728881835938 C 325.3967895507812 641.878173828125 326.3185119628906 642.9691772460938 326.7287902832031 644.25341796875 C 327.9158020019531 643.49072265625 329.5768737792969 642.9175415039062 331.8880004882812 642.9175415039062 C 334.4930725097656 642.9175415039062 337.8074035644531 643.6075439453125 342.0204772949219 645.0269775390625 C 342.9806518554688 645.3504638671875 343.8703308105469 645.6736450195312 344.6350708007812 645.9630126953125 C 346.8598937988281 644.5089111328125 349.0986633300781 643.3766479492188 351.3179321289062 642.5846557617188 C 353.9176635742188 641.656982421875 356.5108032226562 641.18603515625 359.0255432128906 641.184814453125 C 358.6590881347656 638.8790283203125 358.265869140625 636.2247924804688 357.9193115234375 633.494384765625 C 357.3316955566406 628.864990234375 357.0028991699219 624.9749145507812 356.9419555664062 621.931884765625 C 356.8387145996094 616.7781372070312 357.4583129882812 613.8756713867188 359.0805969238281 611.9139404296875 C 360.1408081054688 610.6317749023438 361.6295776367188 609.8413696289062 363.2283935546875 609.6951904296875 C 363.7317504882812 609.496337890625 365.3726501464844 608.7093505859375 369.6660766601562 605.709716796875 C 373.0240173339844 603.3636474609375 376.8880004882812 600.4564208984375 380.6248168945312 597.6448364257812 C 392.0912475585938 589.017822265625 394.3489990234375 587.482177734375 397.060302734375 587.482177734375 C 398.6000061035156 587.482177734375 400.051025390625 588.136962890625 401.0411987304688 589.2786254882812 C 401.33251953125 589.614501953125 401.5765991210938 589.984375 401.7704772949219 590.378173828125 C 402.6118469238281 590.6316528320312 404.1831665039062 590.9930419921875 406.9400634765625 591.302490234375 C 409.6534729003906 591.607177734375 412.0303649902344 591.68798828125 412.05224609375 591.6886596679688 C 414.0841064453125 591.754150390625 415.8740844726562 593.0433349609375 416.5800170898438 594.94970703125 C 416.9861755371094 596.0465698242188 417.6018676757812 596.6903076171875 418.7051391601562 597.1714477539062 C 419.9602966308594 597.7188720703125 421.7947082519531 597.9964599609375 424.1573486328125 597.9964599609375 C 426.51171875 597.9964599609375 429.0386962890625 597.7330932617188 431.4824829101562 597.4783935546875 C 433.7701416015625 597.239990234375 435.930908203125 597.0147705078125 437.8693542480469 597.0147705078125 C 440.1121826171875 597.0147705078125 441.8248291015625 597.32421875 443.2590637207031 597.9888916015625 C 445.7734680175781 599.154052734375 447.3204345703125 601.392578125 447.5032348632812 604.1312255859375 C 447.5092163085938 604.220703125 447.5177612304688 604.2904663085938 447.526123046875 604.3428344726562 C 447.7268371582031 604.45263671875 448.2311401367188 604.6739501953125 449.3277587890625 604.9002075195312 C 450.7761840820312 605.1990356445312 452.6419677734375 605.3902587890625 454.8023071289062 605.6116943359375 C 458.0626525878906 605.9458618164062 462.1203002929688 606.36181640625 466.4842529296875 607.3690795898438 C 467.3221740722656 607.5624389648438 468.2081909179688 607.6605224609375 469.1175537109375 607.6605224609375 C 472.638671875 607.6605224609375 476.7376098632812 606.1839599609375 480.659423828125 603.5028076171875 C 484.1827392578125 601.09423828125 486.1390075683594 598.7111206054688 486.6619873046875 597.8292236328125 C 486.9905395507812 595.378173828125 488.8119201660156 593.2413330078125 491.4199523925781 590.8507080078125 C 493.2337036132812 589.188232421875 495.72216796875 587.1685791015625 498.816162109375 584.84814453125 C 503.20703125 581.5550537109375 507.5325317382812 578.613525390625 508.8506469726562 577.7257080078125 C 509.789306640625 576.7940673828125 512.7601318359375 573.7869873046875 515.68017578125 570.210693359375 C 520.010009765625 564.9080200195312 521.2632446289062 562.010009765625 521.6251220703125 560.743408203125 C 521.2700805664062 560.6900634765625 520.7767333984375 560.6466064453125 520.11083984375 560.6466674804688 C 519.338623046875 560.6467895507812 518.4498291015625 560.705322265625 517.468994140625 560.8206787109375 C 515.7960205078125 561.0174560546875 514.1752319335938 561.1172485351562 512.65185546875 561.1172485351562 C 508.8409423828125 561.1172485351562 505.4417724609375 560.4932861328125 502.5487670898438 559.2625732421875 C 499.8148803710938 558.099609375 497.5115356445312 556.396240234375 495.7026977539062 554.1995849609375 C 494.195068359375 552.3687744140625 493.0433959960938 550.2061767578125 492.2799682617188 547.7717895507812 C 491.70166015625 545.92822265625 491.3455200195312 543.9263916015625 491.2213134765625 541.8218383789062 C 491.0174560546875 538.3670654296875 491.5052490234375 535.7412719726562 491.5615234375 535.4532470703125 C 491.6378173828125 535.0629272460938 491.7474060058594 534.71142578125 491.9134521484375 534.3506469726562 C 491.9611206054688 534.2423706054688 492.56884765625 532.843994140625 492.9544677734375 531.1502075195312 C 493.3693542480469 529.3275146484375 493.2628784179688 528.2939453125 493.1578369140625 527.9323120117188 C 491.0198974609375 527.0987548828125 489.027587890625 525.6964721679688 487.2352294921875 523.7635498046875 C 485.9344177246094 522.3607788085938 484.7289428710938 520.6668701171875 483.6522216796875 518.728759765625 C 481.92041015625 515.611572265625 481.076416015625 512.8746337890625 480.98583984375 512.5728759765625 C 480.5540771484375 511.1334838867188 480.7925415039062 509.5763854980469 481.6351928710938 508.3322143554688 C 482.4779052734375 507.0880737304688 483.8354187011719 506.2888488769531 485.3321838378906 506.1557922363281 C 489.0127563476562 505.8285522460938 491.899658203125 505.1653137207031 493.9126586914062 504.1845092773438 C 495.0802612304688 503.6156005859375 495.8892822265625 502.9607238769531 496.2523803710938 502.2906799316406 C 496.7564697265625 501.3603820800781 496.4483642578125 500.1572875976562 496.20263671875 499.48876953125 C 495.0377807617188 498.34033203125 492.6433410644531 495.9033203125 490.2959594726562 493.0485534667969 C 488.3328857421875 490.6612548828125 486.7918090820312 488.4512023925781 485.7154541015625 486.4799194335938 C 483.9783630371094 483.2984313964844 483.3427734375 480.5514831542969 483.7723999023438 478.0821533203125 C 484.0098876953125 476.7174377441406 484.5625915527344 475.4934997558594 485.4152221679688 474.4444274902344 C 486.2468872070312 473.4212036132812 487.3292846679688 472.6133728027344 488.6318359375 472.0436096191406 C 488.7450866699219 471.9940490722656 488.8441162109375 471.9476013183594 488.9303283691406 471.9047546386719 C 488.8566284179688 471.6627197265625 488.7418823242188 471.3352661132812 488.5633544921875 470.9021911621094 C 488.1215209960938 469.8305053710938 487.46923828125 468.5362548828125 486.7139282226562 467.0376586914062 C 485.2851867675781 464.2027282714844 483.5070190429688 460.6746215820312 482.0224609375 456.3855590820312 C 481.9398803710938 456.1469116210938 481.8682861328125 456.0254516601562 481.8348388671875 455.976318359375 C 481.7398681640625 455.9428100585938 481.4895935058594 455.8866882324219 481.0540161132812 455.88671875 C 478.8388061523438 455.8870239257812 475.2560424804688 457.2176818847656 472.3772583007812 458.2868957519531 C 468.9370727539062 459.5646057128906 465.9660034179688 460.6680908203125 463.257080078125 460.6680908203125 C 459.8778686523438 460.6680908203125 458.072998046875 458.9152526855469 457.2979431152344 457.8704528808594 C 455.08984375 454.8940124511719 455.8911743164062 451.062744140625 456.6861267089844 448.4397888183594 C 458.871337890625 441.2290954589844 464.6539916992188 431.3258361816406 473.8733520507812 419.0053100585938 C 478.220703125 413.1956481933594 482.2775268554688 408.2628784179688 484.6701049804688 405.4241943359375 C 484.5863342285156 405.234375 484.5029602050781 405.0401306152344 484.4208984375 404.8423767089844 C 483.8587646484375 403.4879150390625 483.4855346679688 402.2873229980469 483.27978515625 401.1718444824219 C 482.8860473632812 399.0373840332031 483.1308898925781 397.1750183105469 484.0074157714844 395.6365051269531 C 485.195068359375 393.5520324707031 487.3524169921875 392.3565063476562 489.9264221191406 392.3565063476562 C 491.8298950195312 392.3565063476562 494.0015258789062 392.9989624023438 496.7611083984375 394.3786010742188 C 498.599609375 395.2979125976562 499.6549682617188 395.4352111816406 500.120361328125 395.4352111816406 C 500.4748229980469 395.4352111816406 500.5705871582031 395.3617858886719 500.60205078125 395.3376770019531 C 500.657958984375 395.2947998046875 500.8585815429688 395.1166076660156 501.0923461914062 394.6240844726562 C 501.3898010253906 393.9973754882812 501.5506591796875 393.2678833007812 501.627197265625 392.7690734863281 C 500.68408203125 387.7370910644531 500.5513305664062 381.9303283691406 501.2333984375 375.4943237304688 C 501.8224182128906 369.9362487792969 503.0350646972656 363.7543334960938 504.8375244140625 357.1201171875 C 508.0552368164062 345.2771606445312 512.5099487304688 334.3042602539062 515.1715087890625 327.7482299804688 C 515.5127563476562 326.90771484375 515.8707275390625 326.0260620117188 516.1951293945312 325.214599609375 C 515.4281616210938 324.9457397460938 514.4428100585938 324.6270751953125 513.18603515625 324.260986328125 C 510.1710815429688 323.3826293945312 506.3679504394531 322.455322265625 502.1878356933594 321.5794067382812 C 493.5998229980469 319.7796020507812 484.7924194335938 318.4912109375 479.7503662109375 318.2969970703125 C 476.1282958984375 318.1577758789062 473.3472900390625 317.1895751953125 471.248291015625 315.3368530273438 C 469.3410034179688 313.6533203125 468.47607421875 311.6812133789062 467.7811279296875 310.0965576171875 C 467.1565856933594 308.6724243164062 466.8665161132812 308.0956420898438 466.2935180664062 307.6856079101562 C 465.68359375 307.2492065429688 464.0419921875 306.5171508789062 459.9005126953125 306.5173950195312 C 458.9916381835938 306.5174560546875 457.9965209960938 306.5531005859375 456.9427490234375 306.6233520507812 C 455.6784057617188 306.7077026367188 454.3940124511719 306.7504272460938 453.1251831054688 306.7504272460938 C 447.8565979003906 306.7504272460938 442.6145324707031 306.03076171875 437.5445861816406 304.611328125 C 432.9247131347656 303.3179321289062 428.6316528320312 301.5030517578125 424.7847290039062 299.217041015625 C 421.0977172851562 297.026123046875 417.97314453125 294.4613647460938 415.7486572265625 291.800048828125 C 414.542724609375 290.3572998046875 413.5939331054688 288.8812255859375 412.9286499023438 287.41259765625 C 412.1473999023438 285.688232421875 411.7512817382812 283.967041015625 411.7512817382812 282.2969970703125 C 411.7512817382812 281.635986328125 411.6854858398438 281.0001831054688 411.5789794921875 280.4039306640625 C 411.5509643554688 280.4352416992188 411.5227661132812 280.466552734375 411.4944763183594 280.497802734375 C 408.5196533203125 283.7846069335938 403.6757202148438 287.2967529296875 399.0023803710938 287.2967529296875 C 396.3026733398438 287.2967529296875 393.9553527832031 286.146240234375 392.392822265625 284.0573120117188 C 391.0274658203125 282.23193359375 390.36376953125 279.8727416992188 390.36376953125 276.844970703125 C 390.36376953125 274.616943359375 389.9476928710938 272.6876831054688 389.0918884277344 270.9468383789062 C 388.3455200195312 269.4287109375 387.2804565429688 268.083740234375 385.8358154296875 266.8349609375 C 382.7476501464844 264.16552734375 378.6280517578125 262.6024169921875 375.7982482910156 261.6589965820312 C 371.2649536132812 260.14794921875 367.9903564453125 258.5072021484375 365.4929504394531 256.4954833984375 C 363.9701232910156 255.268798828125 362.69140625 253.860595703125 361.6922912597656 252.3099365234375 C 360.9600830078125 251.1735229492188 360.3587036132812 249.9310302734375 359.89599609375 248.6006469726562 C 359.8751220703125 248.6102905273438 359.8544616699219 248.619873046875 359.8341674804688 248.6292724609375 C 358.4810485839844 249.2559814453125 356.7970581054688 250.0359497070312 354.8763122558594 250.5601196289062 C 354.2668151855469 250.726318359375 353.6410522460938 250.810546875 353.0164184570312 250.810546875 C 351.7156982421875 250.810546875 349.7613525390625 250.4398803710938 347.8377685546875 248.6738891601562 C 346.8963012695312 247.8095703125 346.0505981445312 246.6988525390625 345.2524108886719 245.2781982421875 C 344.1819458007812 243.3729248046875 343.1668395996094 240.8226928710938 342.2352905273438 237.6983642578125 C 341.7731018066406 236.1481323242188 341.374755859375 234.6060791015625 341.0439147949219 233.208984375 M 344.8113098144531 226.7289428710938 C 344.8113098144531 226.7289428710938 348.2131958007812 247.1931762695312 353.5612487792969 245.7362060546875 C 358.9081115722656 244.2769165039062 362.7968444824219 239.9025268554688 364.2549438476562 245.7362060546875 C 365.713134765625 251.5687866210938 370.0875244140625 254.4850463867188 377.3793640136719 256.9155883789062 C 384.6700744628906 259.3462524414062 395.36376953125 264.206298828125 395.36376953125 276.844970703125 C 395.36376953125 289.4825439453125 410.918701171875 276.844970703125 410.4330444335938 271.9838256835938 C 409.9462890625 267.1237182617188 416.7512817382812 274.1387939453125 416.7512817382812 282.2969970703125 C 416.7512817382812 290.0169067382812 432.8604431152344 301.7504272460938 453.1251831054688 301.7504272460938 C 454.275390625 301.7504272460938 455.4352416992188 301.7128295898438 456.6100463867188 301.6344604492188 C 478.4844055175781 300.1760864257812 467.3037719726562 312.8150024414062 479.9423522949219 313.3006591796875 C 492.5800170898438 313.7874755859375 522.2317504882812 320.105712890625 522.2317504882812 323.0230712890625 C 522.2317504882812 325.9393310546875 501.3299560546875 366.7694091796875 506.6767578125 392.5325012207031 C 506.6767578125 392.5325317382812 506.1911010742188 404.6843872070312 494.52490234375 398.8506774902344 C 482.8587646484375 393.0181884765625 490.6361694335938 406.1424255371094 490.6361694335938 406.1424255371094 C 490.6361694335938 406.1424255371094 466.3323974609375 433.8492736816406 461.47119140625 449.8899536132812 C 457.7161865234375 462.2807006835938 472.2357788085938 450.8878784179688 481.0533752441406 450.8867492675781 C 483.6506958007812 450.8863830566406 485.7520751953125 451.8744812011719 486.7474365234375 454.7500305175781 C 491.121826171875 467.3886108398438 498.4136352539062 473.22119140625 490.6361694335938 476.6243286132812 C 482.8587036132812 480.0262756347656 500.3574829101562 496.5536193847656 500.3574829101562 496.5536193847656 C 500.3574829101562 496.5536193847656 507.6492309570312 509.1912536621094 485.7750244140625 511.1361389160156 C 485.7750244140625 511.1361389160156 488.6912231445312 520.857421875 495.0105285644531 523.2879638671875 C 501.3299560546875 525.7185668945312 496.4686889648438 536.4122314453125 496.4686889648438 536.4122314453125 C 496.4686889648438 536.4122314453125 492.6175537109375 556.1173095703125 512.65185546875 556.1173095703125 C 513.9596557617188 556.1173095703125 515.36572265625 556.0336303710938 516.8848876953125 555.8549194335938 C 518.0831909179688 555.7139282226562 519.1568603515625 555.6467895507812 520.1102294921875 555.6466674804688 C 538.8795166015625 555.6443481445312 512.023681640625 581.617919921875 512.023681640625 581.617919921875 C 512.023681640625 581.617919921875 491.608642578125 595.2279663085938 491.608642578125 598.6298828125 C 491.608642578125 602.032958984375 477.9976806640625 615.1572265625 465.3599243164062 612.2410278320312 C 452.7213134765625 609.32373046875 443 611.7542724609375 442.5142822265625 604.4635620117188 C 442.2167053222656 600.00634765625 432.655029296875 602.9964599609375 424.1573486328125 602.9964599609375 C 418.7532653808594 602.9964599609375 413.7804565429688 601.7879638671875 411.8911743164062 596.6860961914062 C 411.8911743164062 596.6860961914062 396.8219604492188 596.200439453125 397.3087158203125 592.79736328125 C 397.7946166992188 589.3941040039062 368.6294250488281 614.6705322265625 363.769287109375 614.6705322265625 C 358.9081115722656 614.6705322265625 365.2274780273438 647.7242431640625 365.2274780273438 647.7242431640625 C 365.2274780273438 647.7242431640625 357.4499206542969 642.37744140625 345.2981262207031 651.6129760742188 C 345.2981262207031 651.6129760742188 330.7156066894531 645.2935180664062 328.7707214355469 649.1824340820312 C 326.826904296875 653.0711059570312 321.4800109863281 652.5855712890625 321.9656372070312 645.7804565429688 C 321.9656372070312 645.7804565429688 309.8138427734375 639.94677734375 312.7300720214844 636.05810546875 C 312.7300720214844 636.05810546875 281.7090759277344 628.5244750976562 278.9068908691406 626.1517944335938 C 278.8102416992188 625.631591796875 278.7049560546875 625.4461669921875 278.7049560546875 625.85107421875 C 278.7049560546875 625.9388427734375 278.7743225097656 626.03955078125 278.9068908691406 626.1517944335938 C 279.2745361328125 628.131103515625 279.5168762207031 634.9653930664062 273.3580627441406 632.6560668945312 C 268.9410095214844 630.9998779296875 262.9559326171875 633.733642578125 256.9171142578125 633.733642578125 C 252.3229370117188 633.733642578125 247.6978759765625 632.1517333984375 243.7074890136719 625.85107421875 C 243.7075805664062 625.85107421875 227.6669006347656 627.309326171875 227.6669006347656 620.0174560546875 C 227.6669006347656 620.0174560546875 190.7244262695312 617.5880126953125 191.6968994140625 597.1717529296875 C 191.6968994140625 597.1717529296875 210.6537170410156 609.810791015625 217.9444885253906 487.8037414550781 C 217.9444885253906 487.8037414550781 206.7650756835938 454.7500305175781 198.987548828125 447.9450378417969 C 198.987548828125 447.9450378417969 198.9503479003906 447.4592590332031 191.6771850585938 432.3911437988281 C 191.6771850585938 432.3911437988281 183.8811340332031 428.9880981445312 191.6771850585938 422.6687927246094 C 191.6771850585938 422.6687927246094 185.3775329589844 394.9630126953125 166.9063110351562 393.9905700683594 C 148.4351196289062 393.0181579589844 150.8656921386719 377.4630737304688 125.103759765625 378.9213256835938 C 125.1038208007812 378.9214172363281 120.24267578125 381.3519287109375 117.8119506835938 371.6305541992188 C 115.3814086914062 361.9094848632812 105.6600341796875 364.8256225585938 105.6600341796875 364.8255615234375 C 105.6600341796875 364.8255615234375 99.8275146484375 340.5218505859375 117.3262939453125 336.633056640625 C 126.0756225585938 334.688720703125 132.2732849121094 335.0533447265625 137.0125732421875 335.0532836914062 C 141.7518005371094 335.0532836914062 145.0325927734375 334.6887817382812 147.9494018554688 331.2862548828125 C 153.7820129394531 324.481201171875 169.8226013183594 327.8832397460938 170.3093566894531 333.716796875 C 170.7950439453125 339.5492553710938 172.7388305664062 350.2431030273438 180.516357421875 343.4381103515625 C 188.2938232421875 336.6329345703125 214.0557556152344 344.8961791992188 214.0557250976562 344.896240234375 C 214.0557250976562 344.896240234375 207.2507019042969 298.7182006835938 201.9038391113281 290.455078125 C 201.9038391113281 290.4551391601562 218.4313049316406 292.8853149414062 223.2912902832031 292.3999633789062 C 228.1527404785156 291.91455078125 224.2637939453125 306.982421875 231.0688171386719 306.982421875 C 237.8738708496094 306.982421875 261.2061767578125 319.1343994140625 269.955078125 306.982421875 C 269.955078125 306.982421875 258.2898864746094 303.5794067382812 270.9275207519531 293.858154296875 C 283.5661926269531 284.1357421875 305.925048828125 285.108154296875 304.9536437988281 276.844970703125 C 304.9536437988281 276.844970703125 312.2443542480469 273.4420166015625 311.2718811035156 255.4575805664062 C 310.3005981445312 237.4719848632812 316.1331176757812 232.6118774414062 323.4237670898438 232.1250610351562 C 330.7156372070312 231.639404296875 344.8113098144531 226.7289428710938 344.8113098144531 226.7289428710938 Z"/></g></g></g><g transform="translate(73.281 133.226)"><path class="g" d="M-2289-1883.388h0l-8.638-14.822-5.866-10.067-1.23-2.112-1.028-2.614,0-.011-.005-.015a17.159,17.159,0,0,1-.72-4.937,17.134,17.134,0,0,1,5.124-12.253A17.463,17.463,0,0,1-2289-1935.3a17.471,17.471,0,0,1,12.373,5.075,17.13,17.13,0,0,1,5.126,12.253,17.2,17.2,0,0,1-.719,4.937l-.005.015-1,2.562-.026.047-1.236,2.128-.01.015-5.861,10.051-8.639,14.822Zm0-42.443a7.381,7.381,0,0,0-7.373,7.373,7.381,7.381,0,0,0,7.373,7.372,7.381,7.381,0,0,0,7.373-7.372A7.381,7.381,0,0,0-2288.993-1925.831Z" transform="translate(2306.489 1935.295)"/></g><g transform="translate(139.631 75.462)"><path class="g" d="M-2289-1883.388h0l-8.638-14.822-5.866-10.067-1.23-2.112-1.028-2.614,0-.011-.005-.015a17.159,17.159,0,0,1-.72-4.937,17.134,17.134,0,0,1,5.124-12.253A17.463,17.463,0,0,1-2289-1935.3a17.471,17.471,0,0,1,12.373,5.075,17.13,17.13,0,0,1,5.126,12.253,17.2,17.2,0,0,1-.719,4.937l-.005.015-1,2.562-.026.047-1.236,2.128-.01.015-5.861,10.051-8.639,14.822Zm0-42.443a7.381,7.381,0,0,0-7.373,7.373,7.381,7.381,0,0,0,7.373,7.372,7.381,7.381,0,0,0,7.373-7.372A7.381,7.381,0,0,0-2288.993-1925.831Z" transform="translate(2306.489 1935.295)"/></g><g transform="translate(211.021)"><path class="g" d="M-2289-1883.388h0l-8.638-14.822-5.866-10.067-1.23-2.112-1.028-2.614,0-.011-.005-.015a17.159,17.159,0,0,1-.72-4.937,17.134,17.134,0,0,1,5.124-12.253A17.463,17.463,0,0,1-2289-1935.3a17.471,17.471,0,0,1,12.373,5.075,17.13,17.13,0,0,1,5.126,12.253,17.2,17.2,0,0,1-.719,4.937l-.005.015-1,2.562-.026.047-1.236,2.128-.01.015-5.861,10.051-8.639,14.822Zm0-42.443a7.381,7.381,0,0,0-7.373,7.373,7.381,7.381,0,0,0,7.373,7.372,7.381,7.381,0,0,0,7.373-7.372A7.381,7.381,0,0,0-2288.993-1925.831Z" transform="translate(2306.489 1935.295)"/></g><g transform="translate(259.101 117.522)"><path class="g" d="M-2289-1883.388h0l-8.638-14.822-5.866-10.067-1.23-2.112-1.028-2.614,0-.011-.005-.015a17.159,17.159,0,0,1-.72-4.937,17.134,17.134,0,0,1,5.124-12.253A17.463,17.463,0,0,1-2289-1935.3a17.471,17.471,0,0,1,12.373,5.075,17.13,17.13,0,0,1,5.126,12.253,17.2,17.2,0,0,1-.719,4.937l-.005.015-1,2.562-.026.047-1.236,2.128-.01.015-5.861,10.051-8.639,14.822Zm0-42.443a7.381,7.381,0,0,0-7.373,7.373,7.381,7.381,0,0,0,7.373,7.372,7.381,7.381,0,0,0,7.373-7.372A7.381,7.381,0,0,0-2288.993-1925.831Z" transform="translate(2306.489 1935.295)"/></g><g transform="translate(369.022 75.462)"><path class="g" d="M-2289-1883.388h0l-8.638-14.822-5.866-10.067-1.23-2.112-1.028-2.614,0-.011-.005-.015a17.159,17.159,0,0,1-.72-4.937,17.134,17.134,0,0,1,5.124-12.253A17.463,17.463,0,0,1-2289-1935.3a17.471,17.471,0,0,1,12.373,5.075,17.13,17.13,0,0,1,5.126,12.253,17.2,17.2,0,0,1-.719,4.937l-.005.015-1,2.562-.026.047-1.236,2.128-.01.015-5.861,10.051-8.639,14.822Zm0-42.443a7.381,7.381,0,0,0-7.373,7.373,7.381,7.381,0,0,0,7.373,7.372,7.381,7.381,0,0,0,7.373-7.372A7.381,7.381,0,0,0-2288.993-1925.831Z" transform="translate(2306.489 1935.295)"/></g><g transform="translate(199.778 266.08)"><path class="g" d="M-2289-1883.388h0l-8.638-14.822-5.866-10.067-1.23-2.112-1.028-2.614,0-.011-.005-.015a17.159,17.159,0,0,1-.72-4.937,17.134,17.134,0,0,1,5.124-12.253A17.463,17.463,0,0,1-2289-1935.3a17.471,17.471,0,0,1,12.373,5.075,17.13,17.13,0,0,1,5.126,12.253,17.2,17.2,0,0,1-.719,4.937l-.005.015-1,2.562-.026.047-1.236,2.128-.01.015-5.861,10.051-8.639,14.822Zm0-42.443a7.381,7.381,0,0,0-7.373,7.373,7.381,7.381,0,0,0,7.373,7.372,7.381,7.381,0,0,0,7.373-7.372A7.381,7.381,0,0,0-2288.993-1925.831Z" transform="translate(2306.489 1935.295)"/></g><g transform="translate(276.597 280.474)"><path class="g" d="M-2289-1883.388h0l-8.638-14.822-5.866-10.067-1.23-2.112-1.028-2.614,0-.011-.005-.015a17.159,17.159,0,0,1-.72-4.937,17.134,17.134,0,0,1,5.124-12.253A17.463,17.463,0,0,1-2289-1935.3a17.471,17.471,0,0,1,12.373,5.075,17.13,17.13,0,0,1,5.126,12.253,17.2,17.2,0,0,1-.719,4.937l-.005.015-1,2.562-.026.047-1.236,2.128-.01.015-5.861,10.051-8.639,14.822Zm0-42.443a7.381,7.381,0,0,0-7.373,7.373,7.381,7.381,0,0,0,7.373,7.372,7.381,7.381,0,0,0,7.373-7.372A7.381,7.381,0,0,0-2288.993-1925.831Z" transform="translate(2306.489 1935.295)"/></g><g transform="translate(139.631 317.987)"><path class="g" d="M-2289-1883.388h0l-8.638-14.822-5.866-10.067-1.23-2.112-1.028-2.614,0-.011-.005-.015a17.159,17.159,0,0,1-.72-4.937,17.134,17.134,0,0,1,5.124-12.253A17.463,17.463,0,0,1-2289-1935.3a17.471,17.471,0,0,1,12.373,5.075,17.13,17.13,0,0,1,5.126,12.253,17.2,17.2,0,0,1-.719,4.937l-.005.015-1,2.562-.026.047-1.236,2.128-.01.015-5.861,10.051-8.639,14.822Zm0-42.443a7.381,7.381,0,0,0-7.373,7.373,7.381,7.381,0,0,0,7.373,7.372,7.381,7.381,0,0,0,7.373-7.372A7.381,7.381,0,0,0-2288.993-1925.831Z" transform="translate(2306.489 1935.295)"/></g></g></g></svg>