<svg xmlns="http://www.w3.org/2000/svg" width="1366" height="824" viewBox="0 0 1366 824"><defs><style>.a{fill:#00abeb;opacity:0.15;}</style></defs><path class="a" d="M1966.421,935.845c-62.321-2.689-123.843-6.711-182.859-11.954-57.951-5.146-114.228-11.535-167.267-18.988-52.473-7.375-102.366-15.872-148.294-25.258v-21.43c0-.072,0-.143,0-.215V116H2834V884h-.931c-29.538,5.7-60.688,11.067-92.61,15.951-55.367,8.472-114.547,15.746-175.9,21.621-62.457,5.984-127.853,10.581-194.373,13.666C2302,938.4,2231.783,940,2161.5,940,2095.894,940,2030.26,938.6,1966.421,935.845Z" transform="translate(-1468 -116)"/></svg>