<svg xmlns="http://www.w3.org/2000/svg" xmlns:xlink="http://www.w3.org/1999/xlink" width="252.881" height="244.279" viewBox="0 0 252.881 244.279"><defs><style>.a{fill:url(#a);}.b{filter:url(#b);}</style><linearGradient id="a" x1="0.691" y1="1" x2="0.279" y2="0.055" gradientUnits="objectBoundingBox"><stop offset="0" stop-color="#f6a020"/><stop offset="1" stop-color="#f9dd04"/></linearGradient><filter id="b" x="0" y="0" width="252.881" height="244.279" filterUnits="userSpaceOnUse"><feOffset dx="2" dy="10" input="SourceAlpha"/><feGaussianBlur stdDeviation="15" result="c"/><feFlood flood-opacity="0.161"/><feComposite operator="in" in2="c"/><feComposite in="SourceGraphic"/></filter></defs><g transform="translate(43 35)"><g class="b" transform="matrix(1, 0, 0, 1, -43, -35)"><path class="a" d="M-1392.2,240.277A66.866,66.866,0,0,1-1400.806,224l-20.753-57.018a66.328,66.328,0,0,1-3.957-26.207,66.748,66.748,0,0,1,1.9-12.758,67.217,67.217,0,0,1,4.28-12.07,67.217,67.217,0,0,1,6.495-11.037,66.748,66.748,0,0,1,8.549-9.66,66.327,66.327,0,0,1,22.619-13.815,66.543,66.543,0,0,1,22.822-4.043,66.539,66.539,0,0,1,19.915,3.053,67.037,67.037,0,0,1,17.972,8.75,66.451,66.451,0,0,1,14.709,13.832,66.691,66.691,0,0,1,10.129,18.3l20.753,57.018a66.5,66.5,0,0,1-1.343,49.053c-.672.1-1.378.218-2.1.347-12.7,2.26-26.568,4.324-41.211,6.136-11.714,1.45-23.95,2.742-36.367,3.84-21.174,1.873-35.668,2.54-35.812,2.546l0,.005Z" transform="translate(283.28 1460.6) rotate(90)"/></g></g></svg>