<svg xmlns="http://www.w3.org/2000/svg" xmlns:xlink="http://www.w3.org/1999/xlink" width="149.194" height="145.865" viewBox="0 0 149.194 145.865"><defs><style>.a{fill:url(#a);}.b{filter:url(#b);}</style><linearGradient id="a" x1="0.691" y1="1" x2="0.279" y2="0.055" gradientUnits="objectBoundingBox"><stop offset="0" stop-color="#791c17"/><stop offset="0.345" stop-color="#ce1d25"/><stop offset="1" stop-color="#d61d26"/></linearGradient><filter id="b" x="0" y="0" width="149.194" height="145.865" filterUnits="userSpaceOnUse"><feOffset dx="2" dy="10" input="SourceAlpha"/><feGaussianBlur stdDeviation="15" result="c"/><feFlood flood-opacity="0.161"/><feComposite operator="in" in2="c"/><feComposite in="SourceGraphic"/></filter></defs><g transform="translate(43.625 35.001)"><g class="b" transform="matrix(1, 0, 0, 1, -43.63, -35)"><path class="a" d="M12.328,59.1a24.245,24.245,0,0,1-3.5-6.416L1.461,32.45A24.233,24.233,0,0,1,31.473,1.019,24.346,24.346,0,0,1,38,4.2a24.078,24.078,0,0,1,9.021,11.67l7.367,20.238a24.135,24.135,0,0,1-.559,17.981c-.132.021-.275.046-.428.072A371.128,371.128,0,0,1,12.154,58.67l.176.433Z" transform="translate(102.1 35.01) rotate(90)"/></g></g></svg>