<svg xmlns="http://www.w3.org/2000/svg" width="335.455" height="580.791" viewBox="0 0 335.455 580.791"><defs><style>.a{fill:none;stroke:#161615;stroke-miterlimit:10;stroke-width:3px;stroke-dasharray:12;}.b{fill:#e03f76;}.c{fill:#45454b;}.d{fill:#dad9db;}.e{fill:#005fab;}.f{fill:#f27c00;}.g{fill:#f27b0d;}.h{fill:#040506;}</style></defs><g transform="translate(53.036 598.973) rotate(-104)"><path class="a" d="M580.584,421.3c-33.795,11.183-104.35,29.352-190.755,12.351-59.469-11.7-81.457-62-136.537-56.827-36.779,3.455-42.7,23.148-92.632,30.366C138.314,410.416,87.792,417.72,59.4,391.9c-31.576-28.715-31.443-94.453,3.822-158.577" transform="translate(-36.223 -151.419)"/><g transform="translate(26.326 21.418)"><g transform="translate(7.208 5.264)"><path class="b" d="M487.725,225.425l40.57-60.007-10-6.762-40.57,60.006Z" transform="translate(-477.724 -158.657)"/><ellipse class="c" cx="7.243" cy="7.243" rx="7.243" ry="7.243" transform="translate(0.194 41.762)"/><ellipse class="c" cx="7.243" cy="7.243" rx="7.243" ry="7.243" transform="translate(24.537 5.758)"/><g transform="translate(4 2.704)"><ellipse class="d" cx="2.414" cy="2.414" rx="2.414" ry="2.414" transform="translate(25.365 7.882)"/><ellipse class="d" cx="2.414" cy="2.414" rx="2.414" ry="2.414" transform="translate(1.023 43.886)"/><path class="d" d="M501.129,168.629l-1-.676-40.57,60.007,13,8.79a7.244,7.244,0,0,0,10.058-1.943L512.1,191.2a7.243,7.243,0,0,0,.143-7.893Z" transform="translate(-453.558 -163.896)"/><path class="d" d="M538.483,245.955l1.352-2a1.207,1.207,0,0,0-.324-1.677l-1-.676a1.208,1.208,0,0,0-1.677.324l-1.352,2h0l3,2.029Z" transform="translate(-535.483 -183.919)"/><path class="d" d="M485.057,167.4l2.029-3h0l-3-2.029h0l-2.029,3a1.207,1.207,0,0,0,.324,1.677l1,.676A1.207,1.207,0,0,0,485.057,167.4Z" transform="translate(-443.515 -162.375)"/></g><path class="e" d="M486.623,232.24l16.228-24-10-6.762-16.228,24Z" transform="translate(-451.478 -170.331)"/><path class="e" d="M479.8,184.642l-8.271,12.233-10-6.762,10.574-15.639" transform="translate(-417.455 -162.97)"/><path class="e" d="M512.867,257.435l7.176-10.614-10.126-6.846-7.438,11" transform="translate(-487.477 -180.828)"/><path class="f" d="M484.764,193.905,448.927,246.91l3,2.029,34.485-51.005Z" transform="translate(-414.895 -168.267)"/><path class="g" d="M486.971,257.193l-3.381,5,5.324,5.057A7.243,7.243,0,0,0,486.971,257.193Z" transform="translate(-443.853 -185.522)"/><path class="g" d="M471.778,250.626l6.762-10-6-4.057-6.762,10Z" transform="translate(-419.279 -179.899)"/><path class="d" d="M467.441,252.3l2.705-4-3-2.029-2.705,4Z" transform="translate(-409.913 -182.544)"/><path class="g" d="M462.482,236.877l6.762-10-6-4.056-6.762,10Z" transform="translate(-403.22 -176.15)"/><path class="d" d="M458.145,238.55l2.705-4-3-2.029-2.7,4Z" transform="translate(-393.855 -178.796)"/></g><path class="h" d="M505.2,177.2a3.622,3.622,0,1,1-.972-5.029A3.621,3.621,0,0,1,505.2,177.2Zm-4-2.705a1.207,1.207,0,1,0,1.677-.324A1.208,1.208,0,0,0,501.2,174.5Z" transform="translate(-463.217 -156.908)"/><path class="h" d="M538.671,226.7a3.622,3.622,0,1,1-.972-5.029A3.621,3.621,0,0,1,538.671,226.7Zm-4-2.7a1.207,1.207,0,1,0,1.677-.324A1.207,1.207,0,0,0,534.67,224Z" transform="translate(-521.025 -170.404)"/><path class="h" d="M507.01,164.892,517.768,179.1h0l.354.468c.022.03.043.058.062.089a8.458,8.458,0,0,1-.167,9.208l-4.463,6.6,1,.676,8.79-13a1.209,1.209,0,0,1,2.118.219l1.648,4.029a1.213,1.213,0,0,1-.118,1.133l-10.819,16,5,3.381a1.208,1.208,0,0,1,.324,1.677l-1.352,2,2,1.352a1.208,1.208,0,0,1,.324,1.677l-2.705,4a1.206,1.206,0,0,1-1.676.324l-2-1.352-2.705,4,2,1.352a1.207,1.207,0,0,1,.324,1.677l-2.705,4a1.207,1.207,0,0,1-1.676.324l-2-1.352-1.353,2a1.207,1.207,0,0,1-1.676.324l-5-3.381-2.078,3.073a8.463,8.463,0,0,1,1.316,10.985,1.206,1.206,0,0,1-1.676.323,1.161,1.161,0,0,1-.155-.124l-4.291-4.077-1.906,2.821a1.207,1.207,0,0,1-1.677.324l-3-2.029a1.207,1.207,0,0,1-.324-1.676l6.085-9-1-.676-4.057,6a8.465,8.465,0,0,1-8.862,3.508.98.98,0,0,1-.159-.036,8.4,8.4,0,0,1-2.714-1.2l-23-15.552a1.207,1.207,0,0,1-.324-1.676l2.754-4.073a8.433,8.433,0,0,1-2.624-4.74l-4.13,6.108a1.207,1.207,0,1,1-2-1.352L485.34,157.45a1.207,1.207,0,1,1,2,1.353l-2.777,4.107a8.437,8.437,0,0,1,5.376.67l4.107-6.073a1.206,1.206,0,0,1,1.676-.324l11,7.438a1.2,1.2,0,0,1,.287.271Zm2.173,6.868L500.229,185l8,5.409,7.111-10.518Zm9.259,44.5,1.352-2-1-.676-1.352,2Zm-5.029.972,5.409-8-4-2.705-5.409,8Zm-1.733,9.029,1.352-2-1-.676-1.352,2Zm-5.029.972,5.409-8-4-2.705-5.409,8Zm-8.8,4.4-2.064,3.053,3.42,3.248A6.061,6.061,0,0,0,497.85,231.63Zm-7.666,4.873,1,.676,33.447-49.47-.549-1.343ZM513.2,198.146l-1-.676-18.256,27,1,.676Zm-35.048,34.6a6.161,6.161,0,0,0,1.213.632l6-8.872-8.126-5.494-6.086,9Zm-9-6.086,6.762-10a1.207,1.207,0,0,1,1.676-.324l10.126,6.846a1.208,1.208,0,0,1,.324,1.677l-6.017,8.9a6.027,6.027,0,0,0,4.512-2.632l29.481-43.606a6.04,6.04,0,0,0,.7-5.352l-7.167,10.6a1.207,1.207,0,0,1-1.677.324l-10-6.762a1.207,1.207,0,0,1-.324-1.677l10.09-14.924-2.309-3.05-39.18,57.95Zm-8-5.409.676-1-1-.677-.676,1Zm-4.24-17.439a6.036,6.036,0,1,0,8.381-1.62A6.036,6.036,0,0,0,456.913,203.807Zm3.308-4.893a8.439,8.439,0,0,1,5.377.669l14.973-22.147a8.44,8.44,0,0,1-2.624-4.739ZM481.256,167.8a6.036,6.036,0,1,0,8.381-1.619A6.036,6.036,0,0,0,481.256,167.8Zm18.115-5.239-1.352,2,1,.676,1.352-2Zm3,2.029-1.352,2a2.418,2.418,0,0,1-3.353.647l-1-.676a2.417,2.417,0,0,1-.647-3.352l1.352-2-2-1.353-3.43,5.073a8.45,8.45,0,0,1-9.368,13.857L467.6,200.937a8.45,8.45,0,0,1-9.368,13.856l-2.077,3.073,2,1.352.676-1a2.418,2.418,0,0,1,3.352-.648l1,.676a2.417,2.417,0,0,1,.648,3.352l-.676,1,1,.676,39.218-58.007Z" transform="translate(-447.268 -152.919)"/><path class="h" d="M475.169,224.35l16.228-24a1.208,1.208,0,0,1,1.677-.324l10,6.762a1.207,1.207,0,0,1,.324,1.677l-16.228,24a1.207,1.207,0,0,1-1.676.324l-10-6.762A1.208,1.208,0,0,1,475.169,224.35Zm17.553-21.65-6.762,10,8,5.409,6.762-10Zm-6.875,27.411,6.761-10-8-5.409-6.761,10Z" transform="translate(-443.817 -164.614)"/><path class="h" d="M500.948,153.3l-.676,1a1.207,1.207,0,0,1-2-1.353l.676-1a1.207,1.207,0,0,1,2,1.353Z" transform="translate(-458.17 -151.419)"/></g></g></svg>