<svg xmlns="http://www.w3.org/2000/svg" width="776.301" height="393.406" viewBox="0 0 776.301 393.406"><defs><style>.a{fill:none;stroke:#161615;stroke-miterlimit:10;stroke-width:4px;stroke-dasharray:12;}.b{fill:#4659e5;}.c{fill:#45454b;}.d{fill:#dad9db;}.e{fill:#ffe557;}.f{fill:#a38a6f;}.g{fill:#f20dbd;}.h{fill:#040506;}</style></defs><g transform="translate(417.435 -2106.404)"><path class="a" d="M22.149,341.242c52.409-18.468,132.171-39.574,225.434-34,84.015,5.02,119.269,28.121,201.062,39.668,63.27,8.932,158.6,11.545,289.408-22.667" transform="matrix(0.891, 0.454, -0.454, 0.891, -275.556, 1825.498)"/><g transform="matrix(0.656, -0.755, 0.755, 0.656, 203.5, 2425.814)"><g transform="translate(9.655 1.617)"><g transform="translate(0 1.416)"><path class="b" d="M13.4,0,67.741,80.38l-13.4,9.057L0,9.058Z" transform="translate(0 18.624)"/><ellipse class="c" cx="9.703" cy="9.703" rx="9.703" ry="9.703" transform="translate(0.26 32.715)"/><ellipse class="c" cx="9.703" cy="9.703" rx="9.703" ry="9.703" transform="translate(32.867 80.943)"/><g transform="translate(5.359 5.184)"><ellipse class="d" cx="3.234" cy="3.234" rx="3.234" ry="3.234" transform="translate(33.977 82.228)"/><ellipse class="d" cx="3.234" cy="3.234" rx="3.234" ry="3.234" transform="translate(1.37 34)"/><path class="d" d="M55.684,92.914l-1.34.906L0,13.44,17.416,1.665a9.7,9.7,0,0,1,13.473,2.6L70.379,62.68a9.7,9.7,0,0,1,.192,10.572Z" transform="translate(8.038 0)"/><path class="d" d="M4.019,0,5.83,2.679A1.617,1.617,0,0,1,5.4,4.925l-1.34.906A1.618,1.618,0,0,1,1.811,5.4L0,2.717H0L4.019,0Z" transform="translate(0 16.157)"/><path class="d" d="M4.3.711,7.014,4.73h0L3,7.448H3L.278,3.429A1.617,1.617,0,0,1,.711,1.183L2.051.278A1.617,1.617,0,0,1,4.3.711Z" transform="translate(51.35 91.807)"/></g><path class="e" d="M13.4,0,35.134,32.152l-13.4,9.057L0,9.057Z" transform="translate(33.681 25.133)"/><path class="e" d="M24.475,16.387,13.4,0,0,9.057,14.164,30.006" transform="translate(59.042 62.644)"/><path class="e" d="M13.915,0l9.612,14.217L9.963,23.387,0,8.651" transform="translate(20.095 5.444)"/><path class="f" d="M48,73.719l-48-71L4.019,0,50.212,68.322Z" transform="translate(45.587 0)"/></g><path class="g" d="M4.529,13.473,0,6.774,7.132,0A9.7,9.7,0,0,1,4.529,13.473Z" transform="translate(53.228 0)"/><path class="g" d="M8.038,0,17.1,13.4,9.058,18.831,0,5.435Z" transform="translate(62.285 14.736)"/><path class="d" d="M4.019,0,7.642,5.359,3.623,8.076,0,2.717Z" transform="translate(73.041 16.038)"/><path class="g" d="M8.038,0,17.1,13.4,9.057,18.83,0,5.435Z" transform="translate(71.343 28.133)"/><path class="d" d="M4.018,0,7.641,5.359,3.622,8.076,0,2.717Z" transform="translate(82.099 29.435)"/></g><g transform="translate(0 0)"><path class="h" d="M8.871,2.134a4.851,4.851,0,1,0-1.3,6.736A4.851,4.851,0,0,0,8.871,2.134ZM3.512,5.758a1.617,1.617,0,1,1,2.246.434A1.618,1.618,0,0,1,3.512,5.758Z" transform="translate(47.373 88.826)"/><path class="h" d="M8.871,2.135a4.851,4.851,0,1,0-1.3,6.736A4.851,4.851,0,0,0,8.871,2.135ZM3.512,5.757a1.617,1.617,0,1,1,2.246.435A1.616,1.616,0,0,1,3.512,5.757Z" transform="translate(14.767 40.599)"/><path class="h" d="M80.025,102.107,94.436,83.074h0l.474-.627c.029-.04.058-.078.083-.12a11.33,11.33,0,0,0-.224-12.335l-5.978-8.843,1.34-.906,11.775,17.416a1.619,1.619,0,0,0,2.837-.293l2.208-5.4a1.625,1.625,0,0,0-.158-1.518L92.3,49.015,99,44.486a1.618,1.618,0,0,0,.434-2.246l-1.811-2.679L100.3,37.75a1.618,1.618,0,0,0,.433-2.246l-3.623-5.359a1.616,1.616,0,0,0-2.245-.434l-2.679,1.811-3.623-5.359,2.679-1.811a1.617,1.617,0,0,0,.434-2.246l-3.623-5.359a1.617,1.617,0,0,0-2.245-.434L83.13,18.127l-1.812-2.679a1.616,1.616,0,0,0-2.245-.434l-6.7,4.529-2.784-4.116A11.336,11.336,0,0,0,71.355.711,1.616,1.616,0,0,0,69.11.278,1.554,1.554,0,0,0,68.9.444L63.154,5.9,60.6,2.126a1.617,1.617,0,0,0-2.246-.434L54.336,4.41A1.616,1.616,0,0,0,53.9,6.655l8.151,12.057-1.34.906L55.28,11.58a11.339,11.339,0,0,0-11.871-4.7,1.313,1.313,0,0,0-.212.048,11.258,11.258,0,0,0-3.635,1.613L8.749,29.375a1.617,1.617,0,0,0-.434,2.245L12,37.076a11.3,11.3,0,0,0-3.515,6.35L2.957,35.243A1.617,1.617,0,1,0,.277,37.054L51,112.076a1.617,1.617,0,1,0,2.679-1.812l-3.72-5.5a11.3,11.3,0,0,0,7.2-.9L62.66,112a1.616,1.616,0,0,0,2.245.434l14.736-9.963a1.6,1.6,0,0,0,.384-.363Zm2.91-9.2L70.942,75.167l10.717-7.246L91.185,82.01Zm12.4-59.61,1.811,2.679-1.34.906L94,34.2Zm-6.736-1.3,7.246,10.717-5.359,3.623L83.243,35.618ZM86.281,19.9l1.811,2.679-1.34.905-1.811-2.679Zm-6.736-1.3,7.246,10.717-5.359,3.623L74.186,22.222ZM67.756,12.71,64.991,8.62l4.581-4.351A8.119,8.119,0,0,1,67.756,12.71ZM57.487,6.183l1.34-.906,44.8,66.267-.736,1.8ZM88.32,57.563l-1.34.906L62.526,22.3l1.34-.906ZM41.373,11.222A8.252,8.252,0,0,1,43,10.375L51.032,22.26l-10.885,7.36L31.995,17.562ZM29.316,19.374l9.058,13.4a1.616,1.616,0,0,0,2.245.434l13.564-9.17a1.618,1.618,0,0,0,.435-2.246L46.557,9.866A8.074,8.074,0,0,1,52.6,13.391L92.091,71.8a8.091,8.091,0,0,1,.943,7.169l-9.6-14.2a1.617,1.617,0,0,0-2.246-.434l-13.4,9.057a1.617,1.617,0,0,0-.434,2.246L80.873,95.631l-3.093,4.085L25.3,22.091ZM18.6,26.62l.905,1.34-1.339.907-.906-1.341ZM12.92,49.98a8.086,8.086,0,1,1,11.227,2.17A8.086,8.086,0,0,1,12.92,49.98Zm4.431,6.554a11.3,11.3,0,0,0,7.2-.9L44.61,85.3a11.305,11.305,0,0,0-3.515,6.349ZM45.527,98.208a8.085,8.085,0,1,1,11.227,2.169A8.086,8.086,0,0,1,45.527,98.208Zm24.265,7.018-1.811-2.679,1.34-.905,1.811,2.679Zm4.019-2.717L72,99.829a3.239,3.239,0,0,0-4.492-.867l-1.34.905a3.238,3.238,0,0,0-.867,4.491l1.811,2.679-2.679,1.812-4.595-6.8A11.319,11.319,0,0,0,47.29,83.492L27.233,53.825A11.318,11.318,0,0,0,14.684,35.265L11.9,31.148l2.679-1.811.905,1.34a3.239,3.239,0,0,0,4.491.868l1.34-.906a3.238,3.238,0,0,0,.868-4.491l-.905-1.34,1.34-.906,52.533,77.7Z" transform="translate(0 0)"/><path class="h" d="M.277,11.581,22.015,43.733a1.618,1.618,0,0,0,2.246.434l13.4-9.057a1.617,1.617,0,0,0,.434-2.246L16.353.711A1.616,1.616,0,0,0,14.109.278L.712,9.335A1.617,1.617,0,0,0,.277,11.581Zm23.512,29-9.058-13.4,10.717-7.246,9.058,13.4ZM14.58,3.863l9.057,13.4L12.92,24.5l-9.057-13.4Z" transform="translate(41.719 26.548)"/><path class="h" d="M3.863,2.051,2.957.711A1.617,1.617,0,0,0,.277,2.523l.906,1.34A1.617,1.617,0,0,0,3.863,2.051Z" transform="translate(53.439 113.572)"/></g></g></g></svg>